<svg xmlns="http://www.w3.org/2000/svg" viewBox="0 0 512 512"><defs><linearGradient id="s" x2="0" y2="1"><stop stop-color="#15374f"/><stop offset="1" stop-color="#77b4a1"/></linearGradient><linearGradient id="d" x2="1" y2="1"><stop stop-color="#a6edd1"/><stop offset="1" stop-color="#328f91"/></linearGradient></defs><rect width="512" height="512" fill="url(#s)"/><circle cx="363" cy="119" r="64" fill="#f2dfaa" opacity=".9"/><path d="M25 341 160 297 288 338 407 298 496 343 420 374 355 458 288 384 159 426 103 381Z" fill="#486b72"/><path d="m25 341 135-44 128 41 119-40 89 45-117 30-91-15-122 29Z" fill="#9ab891"/><path d="M229 244 123 169 157 272 232 299M299 241l106-99-29 132-71 23" fill="#efcb93" stroke="#8dc5ac" stroke-width="8"/><path d="M260 318q-55 35-91-8 15 73 105 32" fill="#65bcae"/><ellipse cx="264" cy="285" rx="60" ry="76" fill="url(#d)"/><path d="m225 204-9-61 29 36 29-38 9 57" fill="#ebd5a3"/><ellipse cx="266" cy="223" rx="49" ry="50" fill="url(#d)"/><ellipse cx="282" cy="245" rx="42" ry="24" fill="#a7dfbf"/><ellipse cx="286" cy="210" rx="11" ry="15" fill="#fff2cc"/><ellipse cx="290" cy="211" rx="5" ry="9" fill="#1d414b"/><path d="m42 118 5-17 5 17 17 5-17 5-5 17-5-17-17-5Zm374 100 4-13 4 13 13 4-13 4-4 13-4-13-13-4Z" fill="#f5dda3"/><text x="256" y="93" text-anchor="middle" fill="#fff0ce" font-family="Georgia,serif" font-size="69" letter-spacing="12">AERU</text><text x="256" y="474" text-anchor="middle" fill="#fff0ce" font-family="sans-serif" font-size="17" letter-spacing="5">DIE STERNENINSELN</text></svg>
